<svg xmlns="http://www.w3.org/2000/svg" width="30" height="30"><g id="surface1"><path d="M21.121 11.633l-.61 4.285H17.45v10.715h-5.512V16.53H8.88v-4.898h3.672V7.348s0-4.285 4.285-4.285h3.676v4.285h-2.45s-.613 0-.613.613v3.672zm0 0" fill="#fff"/><path d="M29.387 1.836v26.328c0 .672-.551 1.223-1.223 1.223H1.836a1.227 1.227 0 01-1.223-1.223V1.836c0-.672.551-1.223 1.223-1.223h26.328c.672 0 1.223.551 1.223 1.223zm-8.875 14.082l.61-4.285h-3.673V7.96c0-.613.613-.613.613-.613h2.45V3.063h-3.676c-4.285 0-4.285 4.285-4.285 4.285v4.285H8.879v4.898h3.059v10.102h5.511V15.918zm0 0" fill="#3d5a98"/><path d="M28.164 0H1.836A1.839 1.839 0 000 1.836v26.328C0 29.176.824 30 1.836 30h26.328A1.839 1.839 0 0030 28.164V1.836A1.839 1.839 0 0028.164 0zm.613 28.164a.617.617 0 01-.613.613H1.836a.617.617 0 01-.613-.613V1.836c0-.336.277-.613.613-.613h26.328c.336 0 .613.277.613.613zm0 0" fill="#231f20"/><path d="M21.121 11.02h-3.058V7.96h2.449c.336 0 .61-.276.61-.612V3.063a.611.611 0 00-.61-.614h-3.676c-2.527 0-3.73 1.348-4.297 2.48a5.968 5.968 0 00-.601 2.419v3.672h-3.06a.612.612 0 00-.612.613v4.898c0 .336.273.614.613.614h2.45v9.488c0 .34.273.613.608.613h5.512c.34 0 .613-.273.613-.613V16.53h2.45a.614.614 0 00.605-.527l.61-4.285a.603.603 0 00-.141-.489.62.62 0 00-.465-.21zm-1.14 4.285h-2.532a.614.614 0 00-.613.613V26.02H12.55v-9.49a.612.612 0 00-.614-.613H9.489v-3.672h3.063c.34 0 .613-.273.613-.613V7.348c0-.008.012-.973.488-1.903.602-1.175 1.672-1.773 3.184-1.773h3.062v3.062h-1.835c-.594 0-1.227.43-1.227 1.227v3.672c0 .34.273.613.613.613h2.969zm0 0" fill="#231f20"/></g></svg>