<svg xmlns="http://www.w3.org/2000/svg" xmlns:xlink="http://www.w3.org/1999/xlink" width="30" height="30"><defs><radialGradient id="radial0" gradientUnits="userSpaceOnUse" cx="149.02" cy="787.904" fx="149.02" fy="787.904" r="516.91" gradientTransform="translate(0 -16.204) scale(.0585)"><stop offset="0" stop-color="#ffd676"/><stop offset=".246" stop-color="#f2a454"/><stop offset=".379" stop-color="#f05c3c"/><stop offset=".7" stop-color="#c22f86"/><stop offset=".957" stop-color="#6666ad"/><stop offset=".985" stop-color="#5c6cb2"/></radialGradient><radialGradient id="radial1" gradientUnits="userSpaceOnUse" cx="373.065" cy="434.661" fx="373.065" fy="434.661" r="19.957" gradientTransform="translate(0 -16.204) scale(.0585)"><stop offset="0" stop-color="#ffd676"/><stop offset=".246" stop-color="#f2a454"/><stop offset=".379" stop-color="#f05c3c"/><stop offset=".7" stop-color="#c22f86"/><stop offset=".957" stop-color="#6666ad"/><stop offset=".985" stop-color="#5c6cb2"/></radialGradient><radialGradient id="radial2" gradientUnits="userSpaceOnUse" cx="286.04" cy="788.385" fx="286.04" fy="788.385" r="322.18" gradientTransform="translate(0 -16.204) scale(.0585)"><stop offset="0" stop-color="#ffd676"/><stop offset=".246" stop-color="#f2a454"/><stop offset=".379" stop-color="#f05c3c"/><stop offset=".7" stop-color="#c22f86"/><stop offset=".957" stop-color="#6666ad"/><stop offset=".985" stop-color="#5c6cb2"/></radialGradient><radialGradient id="radial3" gradientUnits="userSpaceOnUse" cx="271.671" cy="548.622" fx="271.671" fy="548.622" r="196.756" gradientTransform="translate(0 -16.204) scale(.0585)"><stop offset="0" stop-color="#ffd676"/><stop offset=".246" stop-color="#f2a454"/><stop offset=".379" stop-color="#f05c3c"/><stop offset=".7" stop-color="#c22f86"/><stop offset=".957" stop-color="#6666ad"/><stop offset=".985" stop-color="#5c6cb2"/></radialGradient><radialGradient id="radial4" gradientUnits="userSpaceOnUse" cx="271.667" cy="548.621" fx="271.667" fy="548.621" r="93.867" gradientTransform="translate(0 -16.204) scale(.0585)"><stop offset="0" stop-color="#ffd676"/><stop offset=".246" stop-color="#f2a454"/><stop offset=".379" stop-color="#f05c3c"/><stop offset=".7" stop-color="#c22f86"/><stop offset=".957" stop-color="#6666ad"/><stop offset=".985" stop-color="#5c6cb2"/></radialGradient><linearGradient id="linear0" gradientUnits="userSpaceOnUse" x1="-5.895" y1="311.558" x2="299.045" y2="569.409" gradientTransform="translate(0 -16.204) scale(.0585)"><stop offset="0" stop-color="#ffd676"/><stop offset=".246" stop-color="#f2a454"/><stop offset=".379" stop-color="#f05c3c"/><stop offset=".7" stop-color="#c22f86"/><stop offset=".957" stop-color="#6666ad"/><stop offset=".985" stop-color="#5c6cb2"/></linearGradient><linearGradient id="linear1" gradientUnits="userSpaceOnUse" x1="343.146" y1="918.533" x2="278.886" y2="467.353" gradientTransform="translate(0 -16.204) scale(.0585)"><stop offset="0" stop-color="#ffd676"/><stop offset=".246" stop-color="#f2a454"/><stop offset=".379" stop-color="#f05c3c"/><stop offset=".7" stop-color="#c22f86"/><stop offset=".957" stop-color="#6666ad"/><stop offset=".985" stop-color="#5c6cb2"/></linearGradient><linearGradient id="linear2" gradientUnits="userSpaceOnUse" x1="419.47" y1="396.414" x2="220.01" y2="563.854" gradientTransform="translate(0 -16.204) scale(.0585)"><stop offset="0" stop-color="#ffd676"/><stop offset=".246" stop-color="#f2a454"/><stop offset=".379" stop-color="#f05c3c"/><stop offset=".7" stop-color="#c22f86"/><stop offset=".957" stop-color="#6666ad"/><stop offset=".985" stop-color="#5c6cb2"/></linearGradient><linearGradient id="linear3" gradientUnits="userSpaceOnUse" x1="293.218" y1="688.862" x2="222.218" y2="398.712" gradientTransform="translate(0 -16.204) scale(.0585)"><stop offset="0" stop-color="#ffd676"/><stop offset=".246" stop-color="#f2a454"/><stop offset=".379" stop-color="#f05c3c"/><stop offset=".7" stop-color="#c22f86"/><stop offset=".957" stop-color="#6666ad"/><stop offset=".985" stop-color="#5c6cb2"/></linearGradient><clipPath id="clip1"><path d="M0 0h30v30H0z"/></clipPath><clipPath id="clip2"><path d="M0 0h30v30H0z"/></clipPath><clipPath id="clip3"><path d="M0 0h30v30H0z"/></clipPath><clipPath id="clip4"><path d="M0 0h30v30H0z"/></clipPath><mask id="mask0"><g filter="url(#alpha)"><path fill-opacity=".4" d="M0 0h30v30H0z"/></g></mask><mask id="mask1"><g filter="url(#alpha)"><path fill-opacity=".4" d="M0 0h30v30H0z"/></g></mask><mask id="mask2"><g filter="url(#alpha)"><path fill-opacity=".302" d="M0 0h30v30H0z"/></g></mask><mask id="mask3"><g filter="url(#alpha)"><path fill-opacity=".302" d="M0 0h30v30H0z"/></g></mask><g id="surface5" clip-path="url(#clip1)"><path d="M22.996 9.227a1.169 1.169 0 11-2.337-.002 1.169 1.169 0 012.337.002zm0 0" fill="url(#radial1)"/></g><g id="surface8" clip-path="url(#clip2)"><path d="M30 23.41v-1.168L19.102 11.344 11.3 19.063l10.906 10.906h1.266c3.605 0 6.527-2.938 6.527-6.559zm0 0" fill="url(#radial2)"/></g><g id="surface11" clip-path="url(#clip3)"><path d="M20.738 27.406h-9.687a6.677 6.677 0 01-6.668-6.668v-9.687a6.677 6.677 0 016.668-6.668h9.687a6.677 6.677 0 016.668 6.668v9.687a6.677 6.677 0 01-6.668 6.668zM11.051 5.793a5.265 5.265 0 00-5.258 5.258v9.687a5.265 5.265 0 005.258 5.258h9.687a5.265 5.265 0 005.258-5.258v-9.687a5.265 5.265 0 00-5.258-5.258h-9.687zm0 0" fill="url(#radial3)"/></g><g id="surface14" clip-path="url(#clip4)"><path d="M15.895 21.387a5.5 5.5 0 01-5.493-5.492 5.5 5.5 0 015.493-5.493 5.5 5.5 0 015.492 5.493 5.5 5.5 0 01-5.492 5.492zm0-9.575a4.088 4.088 0 00-4.082 4.083 4.088 4.088 0 004.082 4.082 4.088 4.088 0 004.082-4.082 4.088 4.088 0 00-4.082-4.082zm0 0" fill="url(#radial4)"/></g><filter id="alpha" filterUnits="objectBoundingBox" x="0%" y="0%" width="100%" height="100%"><feColorMatrix in="SourceGraphic" values="0 0 0 0 1 0 0 0 0 1 0 0 0 0 1 0 0 0 1 0"/></filter></defs><g id="surface1"><path d="M30 23.41c0 3.621-2.922 6.559-6.527 6.559H6.527C2.922 29.969 0 27.03 0 23.41V6.59C0 2.969 2.922.03 6.527.03h16.946C27.078.031 30 2.97 30 6.59zm0 0" fill="url(#radial0)"/><path d="M19.844 4.191h-9.688a5.967 5.967 0 00-5.965 5.965v9.688a5.963 5.963 0 005.965 5.96h9.688a5.96 5.96 0 005.96-5.96v-9.688a5.963 5.963 0 00-5.96-5.965zm0 0" fill="url(#linear0)"/><path d="M19.844 4.191h-9.688c-1.672 0-3.18.692-4.261 1.801l17.882 18.324a5.931 5.931 0 002.028-4.472v-9.688a5.963 5.963 0 00-5.961-5.965zm0 0" fill="url(#linear1)"/><use xlink:href="#surface5" mask="url(#mask0)"/><use xlink:href="#surface8" mask="url(#mask1)"/><use xlink:href="#surface11" mask="url(#mask2)"/><use xlink:href="#surface14" mask="url(#mask3)"/><path d="M19.844 26.512h-9.688a6.677 6.677 0 01-6.668-6.668v-9.688a6.674 6.674 0 016.668-6.668h9.688a6.677 6.677 0 016.668 6.668v9.688a6.677 6.677 0 01-6.668 6.668zM10.156 4.898a5.265 5.265 0 00-5.258 5.258v9.688a5.265 5.265 0 005.258 5.258h9.688a5.265 5.265 0 005.258-5.258v-9.688a5.265 5.265 0 00-5.258-5.258zm0 0" fill="#fff"/><path d="M19.785 15a4.786 4.786 0 11-9.574 0A4.786 4.786 0 0115 10.215 4.783 4.783 0 0119.785 15zm0 0" fill="url(#linear2)"/><path d="M10.21 15A4.786 4.786 0 0015 19.785 4.783 4.783 0 0019.785 15zm0 0" fill="url(#linear3)"/><path d="M15 20.492A5.5 5.5 0 019.508 15 5.5 5.5 0 0115 9.508 5.5 5.5 0 0120.492 15 5.5 5.5 0 0115 20.492zm0-9.574A4.088 4.088 0 0010.918 15 4.088 4.088 0 0015 19.082 4.088 4.088 0 0019.082 15 4.088 4.088 0 0015 10.918zM22.469 8.7a1.169 1.169 0 11-2.338-.002 1.169 1.169 0 012.338.001zm0 0" fill="#fff"/></g></svg>