<svg xmlns="http://www.w3.org/2000/svg" width="30" height="30"><g id="surface1"><path d="M29.766 22.348c0 4.062-3.332 7.418-7.395 7.418H7.63c-4.063 0-7.395-3.356-7.395-7.418V7.605c0-4.062 3.332-7.37 7.395-7.37h14.74c4.063 0 7.395 3.285 7.395 7.37zm0 0" fill="#00c451"/><path d="M24.21 14.977c0 4.96-4.038 8.976-9.046 8.976a9.097 9.097 0 01-4.367-1.11l-5.008 1.583 1.629-4.82a8.79 8.79 0 01-1.3-4.63c0-4.96 4.038-8.976 9.046-8.976 5.008 0 9.047 4.016 9.047 8.977m-9.047-7.559c-4.203 0-7.605 3.379-7.605 7.535A7.49 7.49 0 009 19.371l-.945 2.809 2.93-.918a7.709 7.709 0 004.18 1.25c4.206 0 7.608-3.38 7.608-7.535 0-4.157-3.402-7.559-7.609-7.559m4.559 9.613c-.047-.093-.211-.14-.422-.258a27.102 27.102 0 00-1.512-.71c-.191-.07-.355-.118-.496.117-.145.215-.57.71-.711.875-.117.14-.258.164-.473.047-.21-.118-.945-.329-1.793-1.086a6.473 6.473 0 01-1.23-1.512c-.117-.211-.024-.332.094-.45.097-.093.215-.257.332-.378.117-.117.14-.211.21-.375a.344.344 0 00-.023-.38c-.047-.116-.496-1.183-.683-1.628-.188-.45-.38-.355-.496-.355-.118 0-.286-.024-.426-.024a.794.794 0 00-.59.281c-.211.215-.781.758-.781 1.844s.804 2.125.898 2.27c.117.14 1.535 2.43 3.781 3.328 2.243.875 2.243.59 2.668.543.403-.047 1.301-.52 1.489-1.04.238-.566.238-1.015.164-1.109" fill="#fff"/><path d="M22.371 30H7.63C3.426 30 0 26.598 0 22.395V7.652C0 3.426 3.426 0 7.629 0H22.37C26.574 0 30 3.426 30 7.652v14.743C30 26.598 26.574 30 22.371 30zM7.63.473C3.684.473.473 3.683.473 7.653v14.742c0 3.921 3.21 7.132 7.156 7.132H22.37c3.945 0 7.156-3.187 7.156-7.132V7.652c0-3.968-3.21-7.18-7.156-7.18H7.63zm0 0"/><path d="M21.852 28.582H8.148c-3.707 0-6.73-3.023-6.73-6.707V8.172c0-3.66 3.07-6.754 6.73-6.754h13.657c.14 0 .234.094.234.234 0 .145-.094.239-.234.239H8.148c-3.402 0-6.257 2.882-6.257 6.28v13.704c0 3.379 2.882 6.234 6.257 6.234h13.704c3.402 0 6.257-2.855 6.257-6.234v-6.64c0-.141.094-.235.239-.235.14 0 .234.094.234.234v6.641c0 3.707-3.023 6.707-6.73 6.707zm0 0"/><path d="M26.387 3.875a.227.227 0 01-.168-.07c-1.157-1.16-2.977-1.914-4.606-1.914-.14 0-.234-.094-.234-.239 0-.14.094-.234.234-.234 1.774 0 3.664.777 4.938 2.055a.231.231 0 010 .332c-.024.047-.094.07-.164.07zm1.961 9.945c-.145 0-.239-.097-.239-.238v-3.496c0-.14.094-.234.239-.234.14 0 .234.093.234.234v3.496c0 .14-.094.238-.234.238zm-13.208 9a7.854 7.854 0 01-4.226-1.23l-2.812.898c-.094.024-.188 0-.235-.07-.047-.07-.094-.164-.047-.238l.918-2.692a7.796 7.796 0 01-1.414-4.465c0-4.3 3.52-7.77 7.84-7.77 4.324 0 7.844 3.493 7.844 7.77-.024 4.301-3.543 7.797-7.867 7.797zm-4.18-1.726c.048 0 .095.023.118.047 1.207.804 2.598 1.207 4.063 1.207 4.062 0 7.37-3.285 7.37-7.301 0-4.04-3.308-7.3-7.37-7.3-4.063 0-7.368 3.284-7.368 7.3 0 1.558.497 3.023 1.391 4.277.047.07.047.14.024.211l-.801 2.363 2.48-.78c.047-.024.07-.024.094-.024zm6.638-1.582c-.328 0-.922-.117-2.243-.637-1.394-.566-2.765-1.75-3.851-3.355-.024-.024-.047-.047-.047-.07-.285-.38-.945-1.372-.945-2.41 0-1.11.566-1.7.804-1.962l.047-.047c.282-.308.637-.355.754-.355h.449c.239-.024.473.023.688.52.07.144.164.378.258.617.164.398.379.917.425.992.047.07.165.304.024.59l-.024.07c-.046.117-.117.21-.214.355-.047.047-.07.094-.118.14-.07.095-.164.188-.234.259-.094.097-.094.097-.07.168.07.117.023.258-.098.328-.117.074-.258.023-.328-.094-.238-.379.023-.637.14-.73.047-.047.118-.145.188-.215a.555.555 0 00.121-.14c.07-.095.094-.141.164-.259l.024-.074c.023-.047.023-.094-.024-.164s-.187-.426-.425-1.016c-.094-.234-.188-.472-.258-.613-.098-.238-.145-.238-.215-.215h-.496a.625.625 0 00-.426.192l-.047.047c-.21.234-.66.707-.66 1.629 0 .921.66 1.867.851 2.124 0 .024.024.047.047.075 1.04 1.535 2.336 2.644 3.637 3.164 1.797.707 2.102.637 2.34.566.07-.023.14-.023.21-.047.356-.023 1.157-.496 1.302-.898.14-.402.164-.754.14-.852a.6.6 0 00-.21-.093l-.122-.047a61.19 61.19 0 00-1.488-.707c-.164-.07-.164-.07-.211.023-.187.281-.71.871-.71.899-.306.328-.638.164-.755.117-.023-.024-.07-.024-.14-.047-.309-.145-.97-.426-1.704-1.063-.093-.097-.117-.238-.023-.332.094-.093.238-.117.332-.023.684.613 1.25.851 1.582.992.07.023.117.047.164.07.145.07.145.047.192 0 .164-.187.543-.636.683-.828.262-.375.59-.258.781-.21.235.093 1.395.636 1.536.73l.117.047c.187.097.332.168.402.285.117.187.07.758-.117 1.254-.238.636-1.23 1.156-1.703 1.203-.047 0-.094.023-.14.023-.095-.023-.188.024-.356.024zm0 0"/><path d="M5.766 24.707a.215.215 0 01-.168-.07c-.07-.07-.094-.164-.047-.235L7.156 19.7a9.265 9.265 0 01-1.273-4.652c0-5.078 4.156-9.211 9.281-9.211 5.129 0 9.285 4.133 9.285 9.21 0 5.079-4.156 9.216-9.285 9.216a9.405 9.405 0 01-4.39-1.09L5.858 24.73c-.046-.023-.07-.023-.093-.023zM15.14 6.285c-4.864 0-8.809 3.918-8.809 8.738 0 1.582.426 3.141 1.25 4.512.047.07.047.14.023.188l-1.488 4.37 4.559-1.44c.07-.024.12-.024.191.023a8.854 8.854 0 004.25 1.09c4.867 0 8.813-3.922 8.813-8.743.023-4.82-3.922-8.738-8.79-8.738zm0 0"/></g></svg>